<svg width="500" height="500" viewBox="0 0 500 500" fill="none" xmlns="http://www.w3.org/2000/svg">
<rect width="500" height="500" fill="white"/>
<path d="M117.814 151.82H130.312C142.583 151.82 152.53 161.767 152.53 174.038V329.564H117.814V151.82Z" fill="#D1D5DB"/>
<rect width="33.9058" height="168.56" transform="matrix(0 -1 -1 0 286.779 329.564)" fill="#D1D5DB"/>
<g filter="url(#filter0_dd_596_15)">
<mask id="path-3-inside-1_596_15" fill="white">
<path d="M347.81 113.536H329.341C317.07 113.536 307.123 123.483 307.123 135.754V270.471H347.81V113.536Z"/>
</mask>
<path d="M347.81 113.536H329.341C317.07 113.536 307.123 123.483 307.123 135.754V270.471H347.81V113.536Z" fill="#3B82F6"/>
<g clip-path="url(#paint0_diamond_596_15_clip_path)" data-figma-skip-parse="true" mask="url(#path-3-inside-1_596_15)"><g transform="matrix(-0.0203435 0 0 0.0784676 327.466 192.003)"><rect x="0" y="0" width="1238.1" height="1061.73" fill="url(#paint0_diamond_596_15)" opacity="0.64" shape-rendering="crispEdges"/><rect x="0" y="0" width="1238.1" height="1061.73" transform="scale(1 -1)" fill="url(#paint0_diamond_596_15)" opacity="0.64" shape-rendering="crispEdges"/><rect x="0" y="0" width="1238.1" height="1061.73" transform="scale(-1 1)" fill="url(#paint0_diamond_596_15)" opacity="0.64" shape-rendering="crispEdges"/><rect x="0" y="0" width="1238.1" height="1061.73" transform="scale(-1)" fill="url(#paint0_diamond_596_15)" opacity="0.64" shape-rendering="crispEdges"/></g></g><path d="M352.653 108.692H334.184C319.239 108.692 307.123 120.808 307.123 135.754V135.754C307.123 126.158 317.07 118.379 329.341 118.379H342.966L352.653 108.692ZM307.123 270.471H347.81H307.123ZM352.653 270.471V108.692L342.966 118.379V270.471H352.653ZM307.123 113.536V270.471V113.536Z" data-figma-gradient-fill="{&#34;type&#34;:&#34;GRADIENT_DIAMOND&#34;,&#34;stops&#34;:[{&#34;color&#34;:{&#34;r&#34;:0.52994793653488159,&#34;g&#34;:0.52994793653488159,&#34;b&#34;:0.52994793653488159,&#34;a&#34;:1.0},&#34;position&#34;:0.0},{&#34;color&#34;:{&#34;r&#34;:0.12994793057441711,&#34;g&#34;:0.12994793057441711,&#34;b&#34;:0.12994793057441711,&#34;a&#34;:0.27000001072883606},&#34;position&#34;:1.0}],&#34;stopsVar&#34;:[{&#34;color&#34;:{&#34;r&#34;:0.52994793653488159,&#34;g&#34;:0.52994793653488159,&#34;b&#34;:0.52994793653488159,&#34;a&#34;:1.0},&#34;position&#34;:0.0},{&#34;color&#34;:{&#34;r&#34;:0.12994793057441711,&#34;g&#34;:0.12994793057441711,&#34;b&#34;:0.12994793057441711,&#34;a&#34;:0.27000001072883606},&#34;position&#34;:1.0}],&#34;transform&#34;:{&#34;m00&#34;:-40.686901092529297,&#34;m01&#34;:0.0,&#34;m02&#34;:347.80957031250,&#34;m10&#34;:0.0,&#34;m11&#34;:156.93519592285156,&#34;m12&#34;:113.53576660156250},&#34;opacity&#34;:0.63999998569488525,&#34;blendMode&#34;:&#34;NORMAL&#34;,&#34;visible&#34;:true}" mask="url(#path-3-inside-1_596_15)"/>
</g>
<g filter="url(#filter1_dd_596_15)">
<mask id="path-5-inside-2_596_15" fill="white">
<path d="M175.375 311.158V270.471H347.809V311.158L175.375 311.158Z"/>
</mask>
<path d="M175.375 311.158V270.471H347.809V311.158L175.375 311.158Z" fill="#3B82F6"/>
<g clip-path="url(#paint1_diamond_596_15_clip_path)" data-figma-skip-parse="true" mask="url(#path-5-inside-2_596_15)"><g transform="matrix(0 -0.0203435 0.0862175 0 261.592 290.815)"><rect x="0" y="0" width="1047.62" height="1011.24" fill="url(#paint1_diamond_596_15)" opacity="0.64" shape-rendering="crispEdges"/><rect x="0" y="0" width="1047.62" height="1011.24" transform="scale(1 -1)" fill="url(#paint1_diamond_596_15)" opacity="0.64" shape-rendering="crispEdges"/><rect x="0" y="0" width="1047.62" height="1011.24" transform="scale(-1 1)" fill="url(#paint1_diamond_596_15)" opacity="0.64" shape-rendering="crispEdges"/><rect x="0" y="0" width="1047.62" height="1011.24" transform="scale(-1)" fill="url(#paint1_diamond_596_15)" opacity="0.64" shape-rendering="crispEdges"/></g></g><path d="M175.375 311.158H170.531V316.002H175.375V311.158ZM347.809 311.158V316.002H352.653V311.158H347.809ZM180.218 311.158V270.471H170.531V311.158H180.218ZM342.966 270.471V311.158H352.653V270.471H342.966ZM347.809 306.314L175.375 306.314V316.002L347.809 316.002V306.314Z" data-figma-gradient-fill="{&#34;type&#34;:&#34;GRADIENT_DIAMOND&#34;,&#34;stops&#34;:[{&#34;color&#34;:{&#34;r&#34;:0.52994793653488159,&#34;g&#34;:0.52994793653488159,&#34;b&#34;:0.52994793653488159,&#34;a&#34;:1.0},&#34;position&#34;:0.0},{&#34;color&#34;:{&#34;r&#34;:0.12994793057441711,&#34;g&#34;:0.12994793057441711,&#34;b&#34;:0.12994793057441711,&#34;a&#34;:0.27000001072883606},&#34;position&#34;:1.0}],&#34;stopsVar&#34;:[{&#34;color&#34;:{&#34;r&#34;:0.52994793653488159,&#34;g&#34;:0.52994793653488159,&#34;b&#34;:0.52994793653488159,&#34;a&#34;:1.0},&#34;position&#34;:0.0},{&#34;color&#34;:{&#34;r&#34;:0.12994793057441711,&#34;g&#34;:0.12994793057441711,&#34;b&#34;:0.12994793057441711,&#34;a&#34;:0.27000001072883606},&#34;position&#34;:1.0}],&#34;transform&#34;:{&#34;m00&#34;:-7.6938874040799292e-15,&#34;m01&#34;:172.43496704101562,&#34;m02&#34;:175.374511718750,&#34;m10&#34;:-40.686901092529297,&#34;m11&#34;:-3.0770765574233624e-14,&#34;m12&#34;:311.1579589843750},&#34;opacity&#34;:0.63999998569488525,&#34;blendMode&#34;:&#34;NORMAL&#34;,&#34;visible&#34;:true}" mask="url(#path-5-inside-2_596_15)"/>
</g>
<line x1="176.001" y1="310.815" x2="179.876" y2="306.941" stroke="#3B82F6" stroke-opacity="0.32" stroke-width="0.968736"/>
<line x1="343.308" y1="305.971" x2="347.183" y2="309.846" stroke="#3B82F6" stroke-opacity="0.32" stroke-width="0.968736"/>
<line x1="347.313" y1="114.083" x2="343.115" y2="117.605" stroke="#3B82F6" stroke-opacity="0.32" stroke-width="0.968736"/>
<g filter="url(#filter2_d_596_15)">
<path d="M90.1258 200.204C90.1258 200.204 111.65 222.422 156.78 212.701C179.692 207.766 186.449 196.127 179.734 176.019C173.988 158.817 152.652 158.106 135.172 162.941C119.057 167.399 110.04 177.142 104.657 192.972C99.7001 207.549 100.355 218.622 108.872 231.448C122.137 251.421 156.969 242.378 171.984 239.471C193.526 235.302 210.833 232.891 231.766 239.471C251.14 245.562 265.093 255.055 273.424 264.775C284.648 277.869 293.917 294.101 287.748 314.064C283.161 328.908 273.189 336.612 258.201 340.704C241.604 345.236 227.648 341.824 215.577 329.564C205.462 319.291 204.207 309.087 203.468 294.689C202.599 277.771 202.161 268.692 205.405 252.065C209.28 232.206 227.351 188.145 244.639 201.206C266.436 217.675 264.112 186.641 279.514 176.019C293.56 166.332 307.912 175.475 332.794 183.769C341.513 186.675 382.014 202.262 398.668 194.425C406.902 190.55 414.421 180.044 418.043 167.301C421.807 154.058 420.051 133.819 411.262 123.223C402.995 113.258 394.793 107.723 383.168 105.301C366.887 101.91 338.182 101.669 323.107 108.692C310.048 114.775 306.459 118.379 297.435 129.035C294.621 132.359 285.81 146.473 286.779 152.77M90.1258 200.204C90.1258 200.204 83.2082 196.976 81.0997 192.972C78.6253 188.274 81.0997 179.374 81.0997 179.374C81.0997 179.374 88.8393 180.631 91.5144 184.235C95.2454 189.261 90.1258 200.204 90.1258 200.204ZM286.779 152.77C286.262 154.232 284.442 156.487 285.922 157.851C287.119 158.953 288.931 158.776 290.088 158.545C291.245 158.314 291.884 155.781 291.477 154.379C290.935 152.517 286.779 152.77 286.779 152.77Z" stroke="url(#paint2_radial_596_15)" stroke-width="4.84368" stroke-linecap="round" shape-rendering="crispEdges"/>
</g>
<path d="M117.814 151.82H130.312C142.583 151.82 152.53 161.767 152.53 174.038V197.644H117.814V151.82Z" fill="#D1D5DB"/>
<g opacity="0.1">
<mask id="path-12-inside-3_596_15" fill="white">
<path d="M174.832 311.294V271.024H252.595V311.294H174.832Z"/>
</mask>
<path d="M174.832 311.294V271.024H252.595V311.294H174.832Z" fill="#3B82F6"/>
<g clip-path="url(#paint3_diamond_596_15_clip_path)" data-figma-skip-parse="true" mask="url(#path-12-inside-3_596_15)"><g transform="matrix(0 -0.0201351 0.0388815 0 213.714 291.159)"><rect x="0" y="0" width="1048.11" height="1024.92" fill="url(#paint3_diamond_596_15)" opacity="0.64" shape-rendering="crispEdges"/><rect x="0" y="0" width="1048.11" height="1024.92" transform="scale(1 -1)" fill="url(#paint3_diamond_596_15)" opacity="0.64" shape-rendering="crispEdges"/><rect x="0" y="0" width="1048.11" height="1024.92" transform="scale(-1 1)" fill="url(#paint3_diamond_596_15)" opacity="0.64" shape-rendering="crispEdges"/><rect x="0" y="0" width="1048.11" height="1024.92" transform="scale(-1)" fill="url(#paint3_diamond_596_15)" opacity="0.64" shape-rendering="crispEdges"/></g></g><path d="M174.832 311.294H169.988V316.138H174.832V311.294ZM179.676 311.294V271.024H169.988V311.294H179.676ZM252.595 306.45H174.832V316.138H252.595V306.45Z" data-figma-gradient-fill="{&#34;type&#34;:&#34;GRADIENT_DIAMOND&#34;,&#34;stops&#34;:[{&#34;color&#34;:{&#34;r&#34;:0.52994793653488159,&#34;g&#34;:0.52994793653488159,&#34;b&#34;:0.52994793653488159,&#34;a&#34;:1.0},&#34;position&#34;:0.0},{&#34;color&#34;:{&#34;r&#34;:0.12994793057441711,&#34;g&#34;:0.12994793057441711,&#34;b&#34;:0.12994793057441711,&#34;a&#34;:0.27000001072883606},&#34;position&#34;:1.0}],&#34;stopsVar&#34;:[{&#34;color&#34;:{&#34;r&#34;:0.52994793653488159,&#34;g&#34;:0.52994793653488159,&#34;b&#34;:0.52994793653488159,&#34;a&#34;:1.0},&#34;position&#34;:0.0},{&#34;color&#34;:{&#34;r&#34;:0.12994793057441711,&#34;g&#34;:0.12994793057441711,&#34;b&#34;:0.12994793057441711,&#34;a&#34;:0.27000001072883606},&#34;position&#34;:1.0}],&#34;transform&#34;:{&#34;m00&#34;:-7.6150786116344418e-15,&#34;m01&#34;:77.763031005859375,&#34;m02&#34;:174.832031250,&#34;m10&#34;:-40.27014160156250,&#34;m11&#34;:-1.3876698523444288e-14,&#34;m12&#34;:311.29382324218750},&#34;opacity&#34;:0.63999998569488525,&#34;blendMode&#34;:&#34;NORMAL&#34;,&#34;visible&#34;:true}" mask="url(#path-12-inside-3_596_15)"/>
</g>
<path d="M124.791 379.629H133.375V382.232H121.59V357.713H124.791V379.629ZM135.578 372.523C135.578 370.553 135.977 368.829 136.775 367.352C137.572 365.851 138.662 364.69 140.046 363.869C141.453 363.048 143.013 362.638 144.725 362.638C146.413 362.638 147.879 363.001 149.122 363.728C150.365 364.455 151.292 365.37 151.901 366.472V362.954H155.138V382.232H151.901V378.644C151.268 379.77 150.318 380.708 149.052 381.458C147.809 382.185 146.355 382.549 144.69 382.549C142.978 382.549 141.43 382.127 140.046 381.282C138.662 380.438 137.572 379.254 136.775 377.729C135.977 376.205 135.578 374.469 135.578 372.523ZM151.901 372.558C151.901 371.104 151.608 369.838 151.022 368.759C150.436 367.68 149.638 366.859 148.63 366.296C147.645 365.71 146.554 365.417 145.358 365.417C144.162 365.417 143.072 365.698 142.087 366.261C141.102 366.824 140.316 367.645 139.73 368.724C139.143 369.802 138.85 371.069 138.85 372.523C138.85 374 139.143 375.29 139.73 376.393C140.316 377.471 141.102 378.304 142.087 378.89C143.072 379.453 144.162 379.735 145.358 379.735C146.554 379.735 147.645 379.453 148.63 378.89C149.638 378.304 150.436 377.471 151.022 376.393C151.608 375.29 151.901 374.012 151.901 372.558ZM169.94 362.603C172.285 362.603 174.185 363.318 175.639 364.748C177.093 366.156 177.82 368.196 177.82 370.87V382.232H174.654V371.327C174.654 369.404 174.173 367.938 173.212 366.93C172.25 365.898 170.937 365.382 169.272 365.382C167.583 365.382 166.235 365.909 165.226 366.965C164.241 368.02 163.749 369.556 163.749 371.573V382.232H160.548V362.954H163.749V365.698C164.382 364.713 165.238 363.951 166.317 363.412C167.419 362.872 168.627 362.603 169.94 362.603ZM181.853 372.558C181.853 370.565 182.252 368.829 183.049 367.352C183.847 365.851 184.949 364.69 186.356 363.869C187.787 363.048 189.417 362.638 191.246 362.638C193.615 362.638 195.561 363.212 197.086 364.361C198.634 365.511 199.654 367.105 200.146 369.146H196.699C196.37 367.973 195.725 367.047 194.764 366.367C193.826 365.687 192.653 365.346 191.246 365.346C189.417 365.346 187.939 365.98 186.814 367.246C185.688 368.489 185.125 370.26 185.125 372.558C185.125 374.88 185.688 376.674 186.814 377.94C187.939 379.207 189.417 379.84 191.246 379.84C192.653 379.84 193.826 379.512 194.764 378.855C195.702 378.198 196.347 377.26 196.699 376.041H200.146C199.63 378.011 198.598 379.594 197.05 380.79C195.503 381.962 193.568 382.549 191.246 382.549C189.417 382.549 187.787 382.138 186.356 381.318C184.949 380.497 183.847 379.336 183.049 377.835C182.252 376.334 181.853 374.575 181.853 372.558ZM222.007 371.855C222.007 372.464 221.972 373.109 221.901 373.789H206.493C206.61 375.689 207.255 377.178 208.428 378.257C209.624 379.312 211.066 379.84 212.755 379.84C214.139 379.84 215.288 379.523 216.202 378.89C217.141 378.234 217.797 377.366 218.172 376.287H221.62C221.104 378.14 220.072 379.652 218.524 380.825C216.976 381.974 215.053 382.549 212.755 382.549C210.926 382.549 209.284 382.138 207.83 381.318C206.399 380.497 205.274 379.336 204.453 377.835C203.632 376.31 203.222 374.552 203.222 372.558C203.222 370.565 203.62 368.817 204.418 367.316C205.215 365.816 206.329 364.666 207.76 363.869C209.214 363.048 210.879 362.638 212.755 362.638C214.584 362.638 216.202 363.036 217.61 363.834C219.017 364.631 220.096 365.733 220.846 367.141C221.62 368.524 222.007 370.096 222.007 371.855ZM218.7 371.186C218.7 369.967 218.43 368.923 217.891 368.055C217.352 367.164 216.613 366.496 215.675 366.05C214.76 365.581 213.74 365.346 212.614 365.346C210.996 365.346 209.612 365.862 208.463 366.894C207.337 367.926 206.693 369.357 206.528 371.186H218.7ZM229.434 366.085C229.997 364.983 230.794 364.127 231.826 363.517C232.881 362.907 234.159 362.603 235.66 362.603V365.909H234.816C231.228 365.909 229.434 367.856 229.434 371.749V382.232H226.232V362.954H229.434V366.085ZM246.18 382.549C244.703 382.549 243.378 382.303 242.205 381.81C241.032 381.294 240.106 380.591 239.426 379.699C238.746 378.785 238.371 377.741 238.3 376.568H241.607C241.701 377.53 242.146 378.316 242.944 378.925C243.765 379.535 244.832 379.84 246.145 379.84C247.365 379.84 248.326 379.57 249.03 379.031C249.733 378.492 250.085 377.811 250.085 376.991C250.085 376.146 249.71 375.525 248.959 375.126C248.209 374.704 247.048 374.294 245.477 373.895C244.046 373.52 242.874 373.144 241.959 372.769C241.068 372.37 240.294 371.796 239.637 371.045C239.004 370.271 238.687 369.263 238.687 368.02C238.687 367.035 238.98 366.132 239.567 365.311C240.153 364.49 240.986 363.846 242.064 363.376C243.143 362.884 244.374 362.638 245.758 362.638C247.892 362.638 249.616 363.177 250.929 364.256C252.243 365.335 252.946 366.812 253.04 368.688H249.839C249.768 367.68 249.358 366.871 248.608 366.261C247.881 365.651 246.896 365.346 245.653 365.346C244.503 365.346 243.589 365.593 242.909 366.085C242.229 366.578 241.889 367.223 241.889 368.02C241.889 368.653 242.088 369.181 242.487 369.603C242.909 370.002 243.425 370.33 244.034 370.588C244.668 370.823 245.535 371.092 246.638 371.397C248.021 371.772 249.147 372.148 250.015 372.523C250.882 372.875 251.621 373.414 252.231 374.141C252.864 374.868 253.193 375.818 253.216 376.991C253.216 378.046 252.923 378.996 252.337 379.84C251.75 380.684 250.918 381.353 249.839 381.845C248.783 382.314 247.564 382.549 246.18 382.549Z" fill="black"/>
<path d="M256.64 381.509V357.377H260.369V378.554H271.274L271.767 381.509H256.64ZM282.362 381.861C280.814 381.861 279.419 381.497 278.176 380.77C276.956 380.043 275.995 379 275.291 377.639C274.588 376.279 274.236 374.673 274.236 372.82V372.222C274.236 370.322 274.588 368.704 275.291 367.367C275.995 366.007 276.956 364.975 278.176 364.272C279.419 363.545 280.814 363.181 282.362 363.181H282.819C284.391 363.181 285.786 363.545 287.006 364.272C288.225 364.999 289.187 366.042 289.89 367.402C290.594 368.739 290.946 370.346 290.946 372.222V372.82C290.946 374.673 290.594 376.279 289.89 377.639C289.187 379 288.213 380.043 286.97 380.77C285.751 381.497 284.367 381.861 282.819 381.861H282.362ZM282.573 379.363C283.464 379.363 284.262 379.152 284.965 378.73C285.669 378.308 286.232 377.675 286.654 376.83C287.076 375.986 287.287 374.942 287.287 373.699V371.342C287.287 370.076 287.076 369.032 286.654 368.212C286.232 367.367 285.669 366.734 284.965 366.312C284.262 365.89 283.464 365.679 282.573 365.679C281.705 365.679 280.92 365.89 280.216 366.312C279.513 366.734 278.95 367.367 278.528 368.212C278.105 369.032 277.894 370.076 277.894 371.342V373.699C277.894 374.942 278.105 375.986 278.528 376.83C278.95 377.675 279.513 378.308 280.216 378.73C280.92 379.152 281.705 379.363 282.573 379.363ZM303.077 381.861C301.53 381.861 300.134 381.497 298.891 380.77C297.672 380.043 296.71 379 296.007 377.639C295.303 376.279 294.951 374.673 294.951 372.82V372.222C294.951 370.322 295.303 368.704 296.007 367.367C296.71 366.007 297.672 364.975 298.891 364.272C300.134 363.545 301.53 363.181 303.077 363.181H303.535C305.106 363.181 306.502 363.545 307.721 364.272C308.941 364.999 309.902 366.042 310.606 367.402C311.309 368.739 311.661 370.346 311.661 372.222V372.82C311.661 374.673 311.309 376.279 310.606 377.639C309.902 379 308.929 380.043 307.686 380.77C306.466 381.497 305.083 381.861 303.535 381.861H303.077ZM303.289 379.363C304.18 379.363 304.977 379.152 305.681 378.73C306.384 378.308 306.947 377.675 307.369 376.83C307.791 375.986 308.002 374.942 308.002 373.699V371.342C308.002 370.076 307.791 369.032 307.369 368.212C306.947 367.367 306.384 366.734 305.681 366.312C304.977 365.89 304.18 365.679 303.289 365.679C302.421 365.679 301.635 365.89 300.932 366.312C300.228 366.734 299.665 367.367 299.243 368.212C298.821 369.032 298.61 370.076 298.61 371.342V373.699C298.61 374.942 298.821 375.986 299.243 376.83C299.665 377.675 300.228 378.308 300.932 378.73C301.635 379.152 302.421 379.363 303.289 379.363ZM316.441 381.509V363.533H319.044L319.572 366.171C320.158 365.233 320.885 364.506 321.753 363.99C322.62 363.451 323.617 363.181 324.743 363.181C325.915 363.181 326.959 363.416 327.874 363.885C328.788 364.354 329.504 365.104 330.02 366.136C330.536 365.268 331.251 364.565 332.165 364.025C333.104 363.462 334.206 363.181 335.472 363.181C336.621 363.181 337.642 363.416 338.533 363.885C339.424 364.354 340.116 365.057 340.608 365.995C341.124 366.91 341.382 368.059 341.382 369.443V381.509H337.9V370.217C337.9 368.716 337.595 367.625 336.985 366.945C336.399 366.265 335.554 365.925 334.452 365.925C333.725 365.925 333.068 366.113 332.482 366.488C331.919 366.863 331.474 367.391 331.145 368.071C330.84 368.751 330.688 369.513 330.688 370.357V381.509H327.17V370.217C327.17 368.716 326.865 367.625 326.255 366.945C325.669 366.265 324.813 365.925 323.687 365.925C322.96 365.925 322.315 366.113 321.753 366.488C321.19 366.863 320.744 367.391 320.416 368.071C320.111 368.751 319.959 369.513 319.959 370.357V381.509H316.441Z" fill="#3B82F6"/>
<defs>
<filter id="filter0_dd_596_15" x="303.248" y="113.536" width="48.4369" height="164.685" filterUnits="userSpaceOnUse" color-interpolation-filters="sRGB">
<feFlood flood-opacity="0" result="BackgroundImageFix"/>
<feColorMatrix in="SourceAlpha" type="matrix" values="0 0 0 0 0 0 0 0 0 0 0 0 0 0 0 0 0 0 127 0" result="hardAlpha"/>
<feOffset dy="3.87494"/>
<feGaussianBlur stdDeviation="1.93747"/>
<feComposite in2="hardAlpha" operator="out"/>
<feColorMatrix type="matrix" values="0 0 0 0 0 0 0 0 0 0 0 0 0 0 0 0 0 0 0.25 0"/>
<feBlend mode="normal" in2="BackgroundImageFix" result="effect1_dropShadow_596_15"/>
<feColorMatrix in="SourceAlpha" type="matrix" values="0 0 0 0 0 0 0 0 0 0 0 0 0 0 0 0 0 0 127 0" result="hardAlpha"/>
<feOffset dy="3.87494"/>
<feGaussianBlur stdDeviation="1.93747"/>
<feComposite in2="hardAlpha" operator="out"/>
<feColorMatrix type="matrix" values="0 0 0 0 1 0 0 0 0 1 0 0 0 0 1 0 0 0 0.25 0"/>
<feBlend mode="normal" in2="effect1_dropShadow_596_15" result="effect2_dropShadow_596_15"/>
<feBlend mode="normal" in="SourceGraphic" in2="effect2_dropShadow_596_15" result="shape"/>
</filter>
<clipPath id="paint0_diamond_596_15_clip_path"><path d="M352.653 108.692H334.184C319.239 108.692 307.123 120.808 307.123 135.754V135.754C307.123 126.158 317.07 118.379 329.341 118.379H342.966L352.653 108.692ZM307.123 270.471H347.81H307.123ZM352.653 270.471V108.692L342.966 118.379V270.471H352.653ZM307.123 113.536V270.471V113.536Z" mask="url(#path-3-inside-1_596_15)"/></clipPath><filter id="filter1_dd_596_15" x="171.5" y="270.471" width="180.185" height="48.4368" filterUnits="userSpaceOnUse" color-interpolation-filters="sRGB">
<feFlood flood-opacity="0" result="BackgroundImageFix"/>
<feColorMatrix in="SourceAlpha" type="matrix" values="0 0 0 0 0 0 0 0 0 0 0 0 0 0 0 0 0 0 127 0" result="hardAlpha"/>
<feOffset dy="3.87494"/>
<feGaussianBlur stdDeviation="1.93747"/>
<feComposite in2="hardAlpha" operator="out"/>
<feColorMatrix type="matrix" values="0 0 0 0 0 0 0 0 0 0 0 0 0 0 0 0 0 0 0.25 0"/>
<feBlend mode="normal" in2="BackgroundImageFix" result="effect1_dropShadow_596_15"/>
<feColorMatrix in="SourceAlpha" type="matrix" values="0 0 0 0 0 0 0 0 0 0 0 0 0 0 0 0 0 0 127 0" result="hardAlpha"/>
<feOffset dy="3.87494"/>
<feGaussianBlur stdDeviation="1.93747"/>
<feComposite in2="hardAlpha" operator="out"/>
<feColorMatrix type="matrix" values="0 0 0 0 1 0 0 0 0 1 0 0 0 0 1 0 0 0 0.25 0"/>
<feBlend mode="normal" in2="effect1_dropShadow_596_15" result="effect2_dropShadow_596_15"/>
<feBlend mode="normal" in="SourceGraphic" in2="effect2_dropShadow_596_15" result="shape"/>
</filter>
<clipPath id="paint1_diamond_596_15_clip_path"><path d="M175.375 311.158H170.531V316.002H175.375V311.158ZM347.809 311.158V316.002H352.653V311.158H347.809ZM180.218 311.158V270.471H170.531V311.158H180.218ZM342.966 270.471V311.158H352.653V270.471H342.966ZM347.809 306.314L175.375 306.314V316.002L347.809 316.002V306.314Z" mask="url(#path-5-inside-2_596_15)"/></clipPath><filter id="filter2_d_596_15" x="73.7027" y="100.578" width="352.506" height="252.216" filterUnits="userSpaceOnUse" color-interpolation-filters="sRGB">
<feFlood flood-opacity="0" result="BackgroundImageFix"/>
<feColorMatrix in="SourceAlpha" type="matrix" values="0 0 0 0 0 0 0 0 0 0 0 0 0 0 0 0 0 0 127 0" result="hardAlpha"/>
<feOffset dy="3.87494"/>
<feGaussianBlur stdDeviation="1.93747"/>
<feComposite in2="hardAlpha" operator="out"/>
<feColorMatrix type="matrix" values="0 0 0 0 0 0 0 0 0 0 0 0 0 0 0 0 0 0 0.16 0"/>
<feBlend mode="normal" in2="BackgroundImageFix" result="effect1_dropShadow_596_15"/>
<feBlend mode="normal" in="SourceGraphic" in2="effect1_dropShadow_596_15" result="shape"/>
</filter>
<clipPath id="paint3_diamond_596_15_clip_path"><path d="M174.832 311.294H169.988V316.138H174.832V311.294ZM179.676 311.294V271.024H169.988V311.294H179.676ZM252.595 306.45H174.832V316.138H252.595V306.45Z" mask="url(#path-12-inside-3_596_15)"/></clipPath><linearGradient id="paint0_diamond_596_15" x1="0" y1="0" x2="500" y2="500" gradientUnits="userSpaceOnUse">
<stop stop-color="#878787"/>
<stop offset="1" stop-color="#212121" stop-opacity="0.27"/>
</linearGradient>
<linearGradient id="paint1_diamond_596_15" x1="0" y1="0" x2="500" y2="500" gradientUnits="userSpaceOnUse">
<stop stop-color="#878787"/>
<stop offset="1" stop-color="#212121" stop-opacity="0.27"/>
</linearGradient>
<radialGradient id="paint2_radial_596_15" cx="0" cy="0" r="1" gradientUnits="userSpaceOnUse" gradientTransform="translate(127.907 279.674) rotate(-16.6297) scale(267.415 267.415)">
<stop stop-color="#3B82F6"/>
<stop offset="0.197962" stop-color="#2B5EB2" stop-opacity="0.83"/>
<stop offset="0.5" stop-color="#2F67C3"/>
<stop offset="0.75" stop-color="#295AAA"/>
<stop offset="1" stop-color="#234C90" stop-opacity="0.94"/>
</radialGradient>
<linearGradient id="paint3_diamond_596_15" x1="0" y1="0" x2="500" y2="500" gradientUnits="userSpaceOnUse">
<stop stop-color="#878787"/>
<stop offset="1" stop-color="#212121" stop-opacity="0.27"/>
</linearGradient>
</defs>
</svg>
