<svg width="500" height="500" viewBox="0 0 500 500" fill="none" xmlns="http://www.w3.org/2000/svg">
<rect width="500" height="500" fill="white"/>
<path d="M143.615 240.189C142.705 184.245 122.777 144.385 115.573 136.932L153.11 116C153.11 116 180.276 183.971 184.391 229.221C186.463 252.006 184.391 287.734 184.391 287.734C184.391 287.734 221.078 284.518 244.678 283.929C301.022 282.521 388.571 293.443 388.571 293.443C388.571 293.443 400.331 310.815 394.259 320.083C390.458 325.885 378.334 330.549 378.334 330.549C349.896 328.012 288.229 319.924 249.555 317.64C210.88 315.357 152.352 326.109 130.36 330.549C133.393 320.083 144.525 296.134 143.615 240.189Z" fill="url(#paint0_linear_598_2)"/>
<path d="M153.854 260.22C153.345 228.962 150.116 199.396 146.091 195.232L167.065 183.537C167.065 183.537 173.981 210.901 176.28 236.183C178.579 261.466 176.28 293.856 176.28 293.856C176.28 293.856 243.042 289.153 256.232 289.153C294.957 289.153 347.482 297.046 347.482 297.046C347.482 297.046 354.052 306.752 350.66 311.93C348.536 315.172 342.14 317.778 342.14 317.778C326.252 316.36 268.695 308.738 237.091 308.738C215.445 308.738 158.379 315.297 146.091 317.778C147.786 311.93 154.362 291.478 153.854 260.22Z" fill="white"/>
<path d="M109.787 177.826C109.787 177.826 110.687 200.862 119.134 211.655C127.146 221.893 145.174 230.445 163.201 228.125C184.876 225.335 212.58 215.677 220.177 195.186C224.467 183.614 226.605 169.696 217.506 161.356C205.454 150.31 175.534 185.189 175.534 185.189" stroke="url(#paint1_linear_598_2)" stroke-width="4.45122" stroke-linecap="round"/>
<path d="M143.616 213.482C143.616 213.482 114.238 242.786 114.238 262.001C114.238 278.915 137.84 282.941 156.969 281.141C194.805 277.58 209.468 242.384 239.762 253.543C258.361 260.394 277.598 287.373 277.598 287.373" stroke="url(#paint2_linear_598_2)" stroke-width="4.45122" stroke-linecap="round"/>
<path d="M287.016 314.861C287.016 314.861 290.158 322.822 288.422 327.982C286.299 334.295 284.484 337.143 276.045 340.114C265.179 343.939 250.781 337.638 244.257 326.002C236.623 312.385 237.905 298.818 247.633 289.855C265.636 273.268 279.555 278.446 287.016 265.84C292.615 256.381 293.858 249.365 291.798 238.854M291.798 238.854L290.061 223.275L280.269 220.159C280.269 220.159 277.095 224.814 277.153 228.171C277.274 235.249 291.798 238.854 291.798 238.854Z" stroke="url(#paint3_linear_598_2)" stroke-width="4.45122" stroke-linecap="round"/>
<circle cx="109.787" cy="173.421" r="5.78659" fill="#234C90" fill-opacity="0.94"/>
<path d="M148.91 367.397H157.494V370H145.709V345.481H148.91V367.397ZM159.697 360.291C159.697 358.321 160.096 356.597 160.893 355.119C161.691 353.619 162.781 352.458 164.165 351.637C165.572 350.816 167.132 350.406 168.844 350.406C170.532 350.406 171.998 350.769 173.241 351.496C174.484 352.223 175.41 353.138 176.02 354.24V350.722H179.256V370H176.02V366.412C175.387 367.538 174.437 368.476 173.171 369.226C171.928 369.953 170.474 370.317 168.808 370.317C167.096 370.317 165.549 369.894 164.165 369.05C162.781 368.206 161.691 367.022 160.893 365.497C160.096 363.973 159.697 362.237 159.697 360.291ZM176.02 360.326C176.02 358.872 175.727 357.605 175.141 356.527C174.554 355.448 173.757 354.627 172.748 354.064C171.763 353.478 170.673 353.185 169.477 353.185C168.281 353.185 167.19 353.466 166.205 354.029C165.22 354.592 164.435 355.413 163.848 356.491C163.262 357.57 162.969 358.837 162.969 360.291C162.969 361.768 163.262 363.058 163.848 364.16C164.435 365.239 165.22 366.072 166.205 366.658C167.19 367.221 168.281 367.502 169.477 367.502C170.673 367.502 171.763 367.221 172.748 366.658C173.757 366.072 174.554 365.239 175.141 364.16C175.727 363.058 176.02 361.78 176.02 360.326ZM194.059 350.37C196.404 350.37 198.304 351.086 199.758 352.516C201.212 353.923 201.939 355.964 201.939 358.637V370H198.773V359.095C198.773 357.172 198.292 355.706 197.33 354.697C196.369 353.665 195.056 353.149 193.39 353.149C191.702 353.149 190.353 353.677 189.345 354.733C188.36 355.788 187.867 357.324 187.867 359.341V370H184.666V350.722H187.867V353.466C188.501 352.481 189.357 351.719 190.435 351.179C191.538 350.64 192.746 350.37 194.059 350.37ZM205.972 360.326C205.972 358.332 206.371 356.597 207.168 355.119C207.965 353.619 209.068 352.458 210.475 351.637C211.905 350.816 213.535 350.406 215.365 350.406C217.733 350.406 219.68 350.98 221.204 352.129C222.752 353.278 223.772 354.873 224.265 356.914H220.817C220.489 355.741 219.844 354.815 218.883 354.134C217.944 353.454 216.772 353.114 215.365 353.114C213.535 353.114 212.058 353.748 210.932 355.014C209.806 356.257 209.244 358.028 209.244 360.326C209.244 362.648 209.806 364.442 210.932 365.708C212.058 366.975 213.535 367.608 215.365 367.608C216.772 367.608 217.944 367.28 218.883 366.623C219.821 365.966 220.466 365.028 220.817 363.809H224.265C223.749 365.779 222.717 367.362 221.169 368.558C219.621 369.73 217.686 370.317 215.365 370.317C213.535 370.317 211.905 369.906 210.475 369.085C209.068 368.265 207.965 367.104 207.168 365.603C206.371 364.102 205.972 362.343 205.972 360.326ZM246.126 359.622C246.126 360.232 246.09 360.877 246.02 361.557H230.612C230.729 363.457 231.374 364.946 232.547 366.025C233.743 367.08 235.185 367.608 236.874 367.608C238.257 367.608 239.406 367.291 240.321 366.658C241.259 366.001 241.916 365.134 242.291 364.055H245.739C245.223 365.908 244.191 367.42 242.643 368.593C241.095 369.742 239.172 370.317 236.874 370.317C235.044 370.317 233.403 369.906 231.949 369.085C230.518 368.265 229.392 367.104 228.571 365.603C227.751 364.078 227.34 362.319 227.34 360.326C227.34 358.332 227.739 356.585 228.536 355.084C229.334 353.583 230.448 352.434 231.878 351.637C233.332 350.816 234.997 350.406 236.874 350.406C238.703 350.406 240.321 350.804 241.728 351.602C243.135 352.399 244.214 353.501 244.965 354.908C245.739 356.292 246.126 357.863 246.126 359.622ZM242.819 358.954C242.819 357.734 242.549 356.691 242.01 355.823C241.47 354.932 240.731 354.263 239.793 353.818C238.879 353.349 237.859 353.114 236.733 353.114C235.115 353.114 233.731 353.63 232.582 354.662C231.456 355.694 230.811 357.125 230.647 358.954H242.819ZM253.552 353.853C254.115 352.751 254.913 351.895 255.944 351.285C257 350.675 258.278 350.37 259.779 350.37V353.677H258.935C255.346 353.677 253.552 355.624 253.552 359.517V370H250.351V350.722H253.552V353.853ZM270.299 370.317C268.821 370.317 267.496 370.07 266.324 369.578C265.151 369.062 264.225 368.358 263.545 367.467C262.865 366.553 262.489 365.509 262.419 364.336H265.726C265.82 365.298 266.265 366.083 267.063 366.693C267.883 367.303 268.95 367.608 270.264 367.608C271.483 367.608 272.445 367.338 273.148 366.799C273.852 366.259 274.204 365.579 274.204 364.758C274.204 363.914 273.829 363.293 273.078 362.894C272.328 362.472 271.167 362.061 269.595 361.663C268.165 361.287 266.992 360.912 266.078 360.537C265.186 360.138 264.412 359.564 263.756 358.813C263.123 358.039 262.806 357.031 262.806 355.788C262.806 354.803 263.099 353.9 263.685 353.079C264.272 352.258 265.104 351.613 266.183 351.144C267.262 350.652 268.493 350.406 269.877 350.406C272.011 350.406 273.735 350.945 275.048 352.024C276.361 353.103 277.065 354.58 277.159 356.456H273.958C273.887 355.448 273.477 354.639 272.726 354.029C271.999 353.419 271.014 353.114 269.771 353.114C268.622 353.114 267.707 353.361 267.027 353.853C266.347 354.346 266.007 354.991 266.007 355.788C266.007 356.421 266.207 356.949 266.605 357.371C267.027 357.77 267.543 358.098 268.153 358.356C268.786 358.59 269.654 358.86 270.756 359.165C272.14 359.54 273.266 359.915 274.133 360.291C275.001 360.643 275.74 361.182 276.35 361.909C276.983 362.636 277.311 363.586 277.335 364.758C277.335 365.814 277.041 366.764 276.455 367.608C275.869 368.452 275.036 369.121 273.958 369.613C272.902 370.082 271.683 370.317 270.299 370.317Z" fill="black"/>
<path d="M280.759 369.277V345.144H284.488V366.322H295.393L295.886 369.277H280.759ZM306.481 369.629C304.933 369.629 303.537 369.265 302.294 368.538C301.075 367.811 300.113 366.767 299.41 365.407C298.706 364.047 298.354 362.44 298.354 360.588V359.99C298.354 358.09 298.706 356.472 299.41 355.135C300.113 353.775 301.075 352.743 302.294 352.039C303.537 351.312 304.933 350.949 306.481 350.949H306.938C308.509 350.949 309.905 351.312 311.124 352.039C312.344 352.766 313.305 353.81 314.009 355.17C314.712 356.507 315.064 358.114 315.064 359.99V360.588C315.064 362.44 314.712 364.047 314.009 365.407C313.305 366.767 312.332 367.811 311.089 368.538C309.87 369.265 308.486 369.629 306.938 369.629H306.481ZM306.692 367.131C307.583 367.131 308.38 366.92 309.084 366.498C309.787 366.076 310.35 365.442 310.772 364.598C311.195 363.754 311.406 362.71 311.406 361.467V359.11C311.406 357.844 311.195 356.8 310.772 355.979C310.35 355.135 309.787 354.502 309.084 354.08C308.38 353.658 307.583 353.447 306.692 353.447C305.824 353.447 305.038 353.658 304.335 354.08C303.631 354.502 303.068 355.135 302.646 355.979C302.224 356.8 302.013 357.844 302.013 359.11V361.467C302.013 362.71 302.224 363.754 302.646 364.598C303.068 365.442 303.631 366.076 304.335 366.498C305.038 366.92 305.824 367.131 306.692 367.131ZM327.196 369.629C325.648 369.629 324.253 369.265 323.01 368.538C321.79 367.811 320.829 366.767 320.125 365.407C319.422 364.047 319.07 362.44 319.07 360.588V359.99C319.07 358.09 319.422 356.472 320.125 355.135C320.829 353.775 321.79 352.743 323.01 352.039C324.253 351.312 325.648 350.949 327.196 350.949H327.653C329.225 350.949 330.62 351.312 331.84 352.039C333.059 352.766 334.021 353.81 334.724 355.17C335.428 356.507 335.78 358.114 335.78 359.99V360.588C335.78 362.44 335.428 364.047 334.724 365.407C334.021 366.767 333.048 367.811 331.805 368.538C330.585 369.265 329.201 369.629 327.653 369.629H327.196ZM327.407 367.131C328.298 367.131 329.096 366.92 329.799 366.498C330.503 366.076 331.066 365.442 331.488 364.598C331.91 363.754 332.121 362.71 332.121 361.467V359.11C332.121 357.844 331.91 356.8 331.488 355.979C331.066 355.135 330.503 354.502 329.799 354.08C329.096 353.658 328.298 353.447 327.407 353.447C326.539 353.447 325.754 353.658 325.05 354.08C324.347 354.502 323.784 355.135 323.362 355.979C322.94 356.8 322.728 357.844 322.728 359.11V361.467C322.728 362.71 322.94 363.754 323.362 364.598C323.784 365.442 324.347 366.076 325.05 366.498C325.754 366.92 326.539 367.131 327.407 367.131ZM340.559 369.277V351.301H343.163L343.69 353.939C344.277 353.001 345.004 352.274 345.871 351.758C346.739 351.219 347.736 350.949 348.861 350.949C350.034 350.949 351.078 351.183 351.992 351.652C352.907 352.121 353.622 352.872 354.138 353.904C354.654 353.036 355.369 352.333 356.284 351.793C357.222 351.23 358.324 350.949 359.591 350.949C360.74 350.949 361.76 351.183 362.651 351.652C363.543 352.121 364.234 352.825 364.727 353.763C365.243 354.678 365.501 355.827 365.501 357.211V369.277H362.018V357.985C362.018 356.484 361.713 355.393 361.104 354.713C360.517 354.033 359.673 353.693 358.571 353.693C357.844 353.693 357.187 353.88 356.601 354.256C356.038 354.631 355.592 355.159 355.264 355.839C354.959 356.519 354.807 357.281 354.807 358.125V369.277H351.289V357.985C351.289 356.484 350.984 355.393 350.374 354.713C349.788 354.033 348.932 353.693 347.806 353.693C347.079 353.693 346.434 353.88 345.871 354.256C345.308 354.631 344.863 355.159 344.534 355.839C344.23 356.519 344.077 357.281 344.077 358.125V369.277H340.559Z" fill="#3B82F6"/>
<defs>
<linearGradient id="paint0_linear_598_2" x1="130.385" y1="159.976" x2="271.695" y2="330.602" gradientUnits="userSpaceOnUse">
<stop stop-color="#306ACA"/>
<stop offset="0.180794" stop-color="#316BCB"/>
<stop offset="0.235868" stop-color="#3A81F4"/>
<stop offset="0.861759" stop-color="#25529B"/>
<stop offset="1" stop-color="#2757A5"/>
</linearGradient>
<linearGradient id="paint1_linear_598_2" x1="166.826" y1="159.39" x2="166.826" y2="228.508" gradientUnits="userSpaceOnUse">
<stop stop-color="#3B82F6"/>
<stop offset="1" stop-color="#234C90"/>
</linearGradient>
<linearGradient id="paint2_linear_598_2" x1="195.918" y1="213.482" x2="195.918" y2="287.373" gradientUnits="userSpaceOnUse">
<stop stop-color="#3B82F6"/>
<stop offset="1" stop-color="#234C90"/>
</linearGradient>
<linearGradient id="paint3_linear_598_2" x1="266.025" y1="220.159" x2="266.025" y2="341.232" gradientUnits="userSpaceOnUse">
<stop stop-color="#3B82F6"/>
<stop offset="1" stop-color="#234C90"/>
</linearGradient>
</defs>
</svg>
