<svg width="417" height="360" viewBox="0 0 417 360" fill="none" xmlns="http://www.w3.org/2000/svg">
<path d="M134.703 230.512C139.391 225.786 143.891 221.451 149.573 215.982C149.576 215.979 149.579 215.976 149.582 215.973C150.396 215.19 151.233 214.385 152.094 213.556C159.062 206.849 168.079 198.116 181.587 184.827C189.022 177.519 195.864 170.971 201.819 165.531C204.873 162.755 207.491 160.378 210.497 158.009C210.891 157.705 211.271 157.416 211.778 157.064C212.652 156.692 211.264 156.434 215.871 155.382C216.961 155.317 218.766 155.252 220.789 157.109C222.655 159.031 222.601 160.615 222.673 161.332C222.679 163.025 222.478 163.141 222.368 163.617C222.157 164.283 221.994 164.606 221.841 164.929C221.566 165.488 221.328 165.896 221.107 166.272C220.235 167.725 219.523 168.795 218.826 169.873C217.792 171.469 216.776 173.078 214.376 177.316C212.814 180.083 210.73 183.876 207.843 189.419C206.309 192.364 204.541 195.825 202.51 199.893C195.772 213.347 185.895 234.892 176.945 254.83C171.515 266.924 166.412 278.444 162.551 287.164C159.739 293.531 156.91 299.852 154.242 306.134C153.591 307.681 152.884 309.37 152.456 310.614C152.342 310.701 152.363 312.011 152.405 309.834C152.366 309.459 152.309 308.756 151.752 307.779C151.043 306.552 150.032 306.042 150.07 306.054C149.853 305.891 149.209 305.596 148.687 305.505C147.76 305.347 147.653 305.452 147.492 305.461C147.113 305.561 147.94 305.318 148.523 305.024C151.061 303.793 154.783 301.579 157.114 300.054C166.27 292.821 176.372 281.188 187.606 269.139C196.25 259.73 204.899 250.723 213.621 241.64C214.729 240.486 215.874 239.291 216.976 238.143C224.69 230.098 232.581 221.821 240.907 212.731C255.753 196.517 267.148 183.187 279.7 168.37C284.61 162.572 289.689 156.55 295.214 150.02C303.943 139.704 316.534 124.918 328.996 109.894C330.037 108.639 331.129 107.317 332.175 106.051C332.181 106.044 332.186 106.038 332.191 106.031C343.558 92.276 354.513 78.5982 362.373 68.4646C374.891 52.3057 379.301 46.0483 383.051 40.8467C384.459 38.8834 385.752 37.072 387.307 34.9177C392.916 27.1614 401.463 15.511 410.082 3.64285C410.115 3.59752 410.148 3.55216 410.181 3.50683C411.611 1.53832 413.13 0.210744 413.572 0.544339C414.013 0.87818 413.209 2.74685 411.778 4.71585C407.21 11.0011 402.746 17.1279 398.744 22.6109C398.921 23.1733 398.132 24.8612 396.832 26.6254C393.565 31.028 383.992 44.8272 368.331 65.974C369.512 64.5938 370.484 63.475 371.366 62.4637C372.395 61.2849 373.173 60.4066 373.854 59.6337C375.278 58.0175 376.201 56.9693 377.792 54.9987C381.394 50.4091 386.921 43.1205 392.683 35.3676C394.134 33.4174 395.667 32.0977 396.104 32.4355C396.543 32.7721 395.719 34.6402 394.267 36.5934C394.238 36.6317 394.21 36.6701 394.181 36.7084C388.47 44.3929 382.756 51.9295 378.986 56.7258C378.02 57.956 377.198 58.9882 376.567 59.773C376.064 60.3974 375.424 61.1895 375.065 61.603C375.017 61.6586 374.925 61.7641 374.812 61.8885C374.81 61.8905 374.808 61.8925 374.806 61.8945C374.743 61.964 374.423 62.3194 374.046 62.6747C373.97 62.7464 373.804 62.9018 373.598 63.0725C373.553 63.1231 373.508 63.1737 373.464 63.2243C372.839 63.9301 372.198 64.6552 371.519 65.4289C368.841 68.481 364.692 73.3631 356.134 83.5933C348.252 93.0141 335.122 109.033 318.46 128.815C319.623 127.498 320.757 126.21 321.925 124.876C324.841 121.548 327.715 118.243 330.626 114.866C331.741 113.573 332.804 112.338 333.93 111.023C335.725 108.929 337.505 106.844 339.286 104.745C340.477 103.343 341.699 101.899 342.894 100.484C342.896 100.481 342.899 100.478 342.902 100.475C344.549 98.5246 346.239 96.5138 347.906 94.5258C348.499 93.82 349.08 93.1261 349.654 92.4405C351.92 89.7321 354.189 87.0028 356.788 83.933C357.109 83.5628 357.453 83.1721 357.722 82.8679C358.008 82.5442 358.284 82.2343 358.545 81.943C358.776 81.6861 358.996 81.4424 359.206 81.2089C359.235 81.1776 359.263 81.1463 359.291 81.1149C359.526 80.8537 359.75 80.6041 359.964 80.3644C360.178 80.1251 360.384 79.895 360.584 79.6675C360.586 79.6653 360.588 79.6631 360.59 79.661C360.798 79.4241 360.96 79.2391 361.183 78.9802C361.462 78.6552 361.7 78.3755 361.986 78.0357C362.262 77.707 362.548 77.3638 362.834 77.0171C363.12 76.6706 363.409 76.3176 363.701 75.9597C363.991 75.6046 364.297 75.2275 364.598 74.855C364.9 74.4818 365.204 74.104 365.508 73.7252C365.813 73.3462 366.12 72.9641 366.426 72.5812C367.128 71.7068 367.902 70.895 368.54 70.3823C369.181 69.8668 369.65 69.6704 369.85 69.8327C370.05 69.9955 369.967 70.5059 369.616 71.2583C369.267 72.0079 368.662 72.9578 367.977 73.848C367.789 74.0922 367.6 74.3383 367.41 74.5855C367.297 74.7322 367.182 74.8803 367.068 75.0281C366.761 75.4255 366.45 75.8285 366.135 76.2343C365.82 76.6399 365.5 77.05 365.183 77.4547C364.863 77.8625 364.538 78.2766 364.205 78.6966C363.872 79.1157 363.53 79.5442 363.179 79.9794C362.836 80.4044 362.442 80.8875 362.093 81.3084C361.837 81.6177 361.518 81.9974 361.25 82.3143C360.971 82.6449 360.693 82.9701 360.424 83.2835C360.154 83.5977 359.891 83.9013 359.64 84.192C359.613 84.2231 359.586 84.2542 359.559 84.2854C359.336 84.5442 359.126 84.7852 358.927 85.0162C358.704 85.2741 358.494 85.5195 358.294 85.7538C358.075 86.0118 357.943 86.1703 357.781 86.3652C355.653 88.9814 353.081 92.1997 350.605 95.2745C350.292 95.6626 349.98 96.0496 349.67 96.4335C348.061 98.43 346.408 100.475 344.796 102.462C343.614 103.919 342.415 105.391 341.232 106.84C339.473 108.996 337.723 111.128 335.943 113.288C334.832 114.635 333.782 115.906 332.674 117.241C329.797 120.71 326.932 124.137 324.004 127.611C321.11 131.042 318.17 134.498 315.205 137.949C312.272 141.361 309.183 144.916 306.183 148.313C303.981 150.804 301.679 153.337 299.542 155.666C298.391 156.921 297.266 158.143 296.155 159.346C296.151 159.35 296.147 159.354 296.143 159.358C295.168 160.415 294.202 161.462 293.246 162.498C291.2 164.717 289.187 166.91 287.191 169.103C285.196 171.295 283.218 173.486 281.235 175.7C279.269 177.897 277.275 180.143 275.314 182.368C273.337 184.612 271.414 186.809 269.388 189.137C266.731 192.19 264.102 195.23 261.4 198.352C258.717 201.454 256.012 204.581 253.309 207.702C252.357 208.802 251.405 209.899 250.457 210.992C250.453 210.997 250.449 211.001 250.446 211.005C248.701 213.017 246.909 215.081 245.158 217.094C242.412 220.25 239.666 223.399 236.927 226.526C234.146 229.7 231.372 232.854 228.574 236.011C225.741 239.208 222.889 242.405 219.928 245.673C217.32 248.553 214.68 251.446 212.069 254.301C211.384 255.05 210.722 255.772 210.019 256.54C206.768 260.091 203.601 263.548 200.518 266.941C197.426 270.342 194.369 273.736 191.235 277.226C188.129 280.685 185.014 284.167 181.836 287.689C178.646 291.223 175.478 294.717 172.182 298.214C168.819 301.682 165.75 305.29 160.963 308.513C158.655 310 156.281 311.543 153.696 312.968C152.217 313.651 151.645 314.545 148.044 314.941C147.573 314.954 146.651 314.917 145.687 314.499C145.145 314.19 145.446 314.617 144.115 313.391C142.794 311.851 142.94 310.815 142.884 310.334C142.935 308.519 143.145 308.512 143.261 307.974C143.513 307.127 143.755 306.468 144.003 305.789C144.402 304.707 144.799 303.694 145.201 302.68C145.784 301.21 146.385 299.736 146.956 298.341C147.941 295.939 148.9 293.624 149.829 291.369C150.763 289.104 151.649 286.94 152.516 284.793C153.39 282.623 154.117 280.789 154.962 278.613C157.076 273.323 158.442 270.098 159.968 266.5C160.27 265.788 160.577 265.063 160.896 264.311C162.734 259.998 164.598 255.696 166.454 251.465C168.328 247.194 170.194 242.994 172.105 238.749C173.996 234.546 175.922 230.322 177.863 226.12C179.801 221.925 181.756 217.748 183.744 213.571C185.73 209.4 187.795 205.132 189.808 201.071C190.97 198.726 192.228 196.233 193.416 193.915C194.257 192.276 195.126 190.599 195.956 189.015C196.307 188.344 196.633 187.725 196.982 187.063C198.144 184.861 199.309 182.68 200.425 180.61C201.543 178.534 202.634 176.528 203.71 174.56C204.785 172.592 205.852 170.652 206.914 168.733C208.013 166.744 208.951 165.073 210.081 163.011C210.444 162.345 210.824 161.649 211.129 161.057C211.283 160.758 211.415 160.49 211.498 160.296C211.533 160.214 211.559 160.133 211.521 160.221C211.713 160.674 210.381 158.997 211.886 164.01C213.285 166.785 216.753 166.89 217.215 166.71C217.887 166.605 218.249 166.43 218.361 166.386C218.659 166.254 218.691 166.222 218.702 166.222C218.703 166.227 218.549 166.343 218.416 166.455C218.099 166.716 217.74 167.033 217.361 167.377C216.608 168.062 215.822 168.812 215.021 169.59C213.438 171.131 211.902 172.677 210.307 174.296C209.829 174.783 209.271 175.351 208.772 175.863C207.229 177.445 205.699 179.031 204.151 180.645C202.644 182.218 201.13 183.81 199.622 185.406C198.138 186.977 196.649 188.563 195.138 190.181C192.601 192.902 190.123 195.467 187.921 197.729C185.723 199.986 183.646 202.097 181.609 204.17C181.235 204.55 180.859 204.933 180.481 205.318C178.841 206.986 177.257 208.598 175.66 210.229C173.734 212.196 171.821 214.158 169.912 216.125C168.02 218.075 166.116 220.046 164.251 221.988C162.359 223.959 160.563 225.839 158.63 227.875C156.72 229.886 154.79 231.944 152.673 234.201C150.58 236.434 148.376 238.782 146.142 241.144C143.905 243.509 141.623 245.905 139.357 248.263C137.074 250.639 134.777 253.01 132.515 255.327C130.22 257.678 127.948 259.989 125.678 262.283C123.396 264.59 121.07 266.928 118.848 269.147C115.302 272.689 111.693 276.284 108.146 279.807C104.575 283.354 101.007 286.891 97.4233 290.421C93.8177 293.956 90.2963 297.472 86.2608 301.069C85.2035 301.994 84.188 302.894 82.6678 303.976C81.574 304.518 82.1314 305.272 77.237 306.196C75.6779 306.404 72.1246 305.889 70.0056 303.062C68.0984 300.301 68.4107 299.24 68.2851 298.129C68.2602 296.621 68.4871 295.81 68.6205 295.208C69.8365 290.914 70.8972 289.285 72.063 286.757C72.5523 285.75 73.0708 284.708 73.5811 283.696C75.3749 280.145 77.197 276.674 79.0138 273.222C79.0268 273.198 79.0397 273.174 79.0527 273.149C81.3765 268.739 83.6683 264.418 85.9893 260.028C86.8269 258.444 87.6619 256.865 88.4778 255.319C89.294 253.773 90.1283 252.19 90.9333 250.659C91.7505 249.106 92.5695 247.545 93.3631 246.028C94.1737 244.477 94.9553 242.978 95.7433 241.458C96.4709 240.055 97.1799 238.678 97.9599 237.165C98.0312 237.026 98.1026 236.888 98.174 236.749C99.0371 235.075 99.9982 233.222 100.924 231.464C103.352 226.859 105.723 222.345 108.121 217.76C110.52 213.175 112.912 208.584 115.315 203.965C116.255 202.158 117.196 200.346 118.139 198.531C119.607 195.708 121.078 192.876 122.557 190.034C124.989 185.358 127.422 180.691 129.894 175.968C132.348 171.281 134.817 166.586 137.306 161.875C139.779 157.195 142.299 152.448 144.759 147.83C147.534 142.62 150.277 137.474 153.024 132.302C155.766 127.138 158.517 121.941 161.195 116.817C163.882 111.655 166.615 106.449 168.956 101.458C169.476 100.428 170.252 98.1971 170.053 99.0535C170.187 99.4588 169.172 99.3104 170.929 103.002C172.118 105.155 175.179 106.095 176.074 106.014C177.151 106.034 177.469 105.885 177.541 105.878C177.416 105.902 177.236 105.946 177.059 105.999C176.687 106.111 176.108 106.33 175.522 106.569C173.122 107.558 170.443 108.824 167.862 110.047C164.745 111.53 161.616 113.055 158.48 114.593C156.861 115.471 155.302 116.32 153.804 117.138C142.748 123.178 134.758 127.598 124.166 133.311C123.16 133.865 122.34 134.333 121.353 134.896C121.162 135.005 120.961 135.119 120.756 135.236C119.466 135.972 117.968 136.821 115.879 137.957C111.723 140.223 105.236 143.597 96.7822 147.608C94.6586 148.617 93.0809 148.873 93.2698 148.154C93.4135 147.645 94.3647 146.807 95.6736 145.996C93.1472 147.284 90.6491 148.566 88.1891 149.875C87.2069 150.398 86.2456 150.807 85.4988 151.01C84.7531 151.212 84.2904 151.187 84.218 150.932C84.1454 150.676 84.4681 150.21 85.1099 149.637C85.7524 149.064 86.6565 148.438 87.6422 147.889C90.2528 146.438 92.8821 145.027 95.527 143.615C98.1846 142.197 100.807 140.808 103.465 139.403C106.129 137.996 108.767 136.605 111.431 135.202C114.083 133.805 116.744 132.405 119.407 131.005C122.085 129.598 124.714 128.215 127.389 126.812C128.991 125.97 130.612 125.121 132.204 124.286C132.797 123.975 133.376 123.671 133.955 123.368C134.428 123.12 134.906 122.871 135.395 122.615C140.549 119.916 145.756 117.197 150.921 114.518C156.11 111.828 161.299 109.144 166.497 106.549C169.091 105.261 171.718 103.954 174.265 102.857C174.891 102.591 175.519 102.34 176.058 102.173C176.106 102.097 177.566 101.978 176.025 102.026C174.526 101.987 173.825 99.6641 173.987 99.7739C173.998 99.5837 173.999 99.6809 173.979 99.7523C173.755 100.634 173.118 102.116 172.558 103.385C170.217 108.604 167.581 113.857 164.995 119.056C162.403 124.247 159.746 129.493 157.109 134.685C155.075 138.689 153.043 142.677 150.993 146.694C150.242 148.256 149.453 149.883 148.715 151.404C146.51 155.947 144.36 160.468 142.232 164.937C146.226 157.079 149.37 150.73 152.354 144.685C152.757 143.869 153.141 143.088 153.539 142.282C157.596 134.049 161.515 126.173 166.866 115.608C168.764 111.846 170.546 108.279 172.131 104.901C172.909 103.228 173.713 101.493 174.17 100.104C174.426 100.048 173.665 98.379 174.704 100.965C176.608 102.565 176.724 101.505 176.479 101.749C176.274 101.8 176.134 101.838 175.959 101.891C175.292 102.092 174.525 102.402 173.79 102.713C167.77 105.359 162.393 108.15 157.641 110.521C148.169 115.294 141.082 118.922 135.642 121.671C124.765 127.176 120.032 129.446 115.528 131.377C109.153 134.112 97.2118 140.055 91.3283 143.247C89.1894 144.403 87.256 144.963 86.9988 144.473C86.7359 143.987 88.2627 142.627 90.409 141.467C96.6483 138.082 109.564 131.637 117.151 128.387C120.531 126.939 124.346 125.141 135.064 119.717C140.419 117.012 147.427 113.424 156.861 108.671C161.602 106.308 166.906 103.546 173.07 100.843C174.444 100.457 177.086 98.3924 176.061 100.767C175.503 102.424 174.711 104.097 173.918 105.81C172.314 109.224 170.525 112.803 168.618 116.582C163.451 126.784 159.674 134.376 155.672 142.502C155.27 143.315 154.885 144.098 154.488 144.902C154.486 144.907 154.483 144.912 154.481 144.917C150.806 152.363 146.786 160.48 141.221 171.322C128.378 196.345 111.162 229.967 107.17 238.026C106.399 239.584 105.63 241.147 104.846 242.744C101.798 248.951 98.1503 256.358 89.5793 273.1C87.7095 276.76 85.5237 280.981 83.1593 285.674C81.5302 289.226 79.8752 292.756 78.7116 296.075C78.4562 296.77 78.2037 297.982 78.2674 297.811C78.3212 297.791 78.0114 296.544 76.9176 296.277C76.0541 296.109 76.0932 296.294 76.1021 296.248C76.1796 296.206 76.5011 296.005 76.7868 295.787C77.9739 294.884 79.2759 293.646 80.3983 292.57C84.4348 288.657 87.9983 284.717 91.4354 280.933C92.4229 279.842 93.4148 278.74 94.4124 277.633C96.7986 274.981 99.2222 272.287 101.552 269.745C103.459 267.668 105.375 265.549 107.451 263.255C114.963 254.953 123.975 244.977 136.291 232.571C149.347 219.419 160.626 208.241 170.365 198.638C163.189 205.647 157.595 211.049 152.937 215.535C152.06 216.378 151.217 217.19 150.404 217.973C144.681 223.481 140.518 227.492 136.161 231.884C115.334 252.881 107.664 260.838 99.17 270.054C96.9194 272.494 94.4817 275.181 91.8634 278.061C89.2011 280.982 86.4057 284.062 83.3978 287.25C81.9383 288.797 80.3592 290.441 78.7699 291.986C77.9522 292.777 77.1841 293.5 76.3968 294.155C76.0463 294.45 75.6403 294.749 75.4974 294.841C75.5214 294.893 75.1868 294.771 76.5075 294.692C77.1361 294.627 78.8211 295.281 79.3754 296.386C79.8459 297.246 79.7768 297.66 79.7906 297.826C79.9452 296.658 82.6077 290.537 84.5469 286.425C86.6327 281.952 88.8589 277.312 91.1476 272.537C91.1496 272.534 91.1515 272.53 91.1535 272.526C92.0699 270.619 92.9796 268.725 93.8774 266.854C99.4784 255.207 105.387 242.997 111.278 231.16C111.916 229.879 112.652 228.388 113.517 226.634C118.483 216.575 127.214 198.902 138.598 177.734C141.108 173.065 143.763 168.274 146.798 162.787C147.722 161.118 148.682 159.382 149.681 157.571C153.982 149.763 159.212 140.227 165.915 127.432C168.684 122.129 171.728 116.266 174.825 109.953C175.609 108.346 176.367 106.773 177.129 105.083C177.516 104.222 177.88 103.395 178.239 102.46C178.411 102.003 178.586 101.542 178.749 100.896C178.81 100.554 178.967 100.337 178.863 99.3393C178.883 98.9374 178.129 97.4415 177.023 97.226C176.113 97.0087 175.77 97.1887 175.566 97.2126C171.249 98.3946 168.311 100.158 164.805 101.79C158.092 105.064 151.362 108.498 144.702 111.884C124.629 122.14 106.237 131.46 87.9743 141.155C87.9705 141.157 87.9667 141.159 87.963 141.162C85.8045 142.319 83.8998 142.863 83.7013 142.34C83.5087 141.814 85.1081 140.416 87.2727 139.257C105.595 129.539 123.912 120.256 143.935 110.027C150.497 106.691 157.177 103.282 163.891 100.008C167.516 98.3408 170.055 96.6442 175.245 95.2335C175.607 95.2242 176.282 94.7569 178.273 95.5606C180.456 96.573 180.869 98.8586 180.882 99.373C180.948 100.742 180.75 101.057 180.673 101.459C180.47 102.235 180.266 102.761 180.085 103.238C179.697 104.242 179.323 105.089 178.918 105.989C178.137 107.714 177.358 109.33 176.566 110.952C173.411 117.379 170.339 123.291 167.532 128.665C160.723 141.656 155.389 151.381 151.023 159.305C149.96 161.234 148.983 162.998 148.032 164.719C145.037 170.131 142.54 174.636 140.159 179.064C129.136 199.561 120.728 216.577 115.751 226.66C114.86 228.462 114.086 230.03 113.423 231.362C107.641 242.98 101.819 255.008 96.2305 266.629C95.3272 268.508 94.4087 270.416 93.5363 272.238C93.5347 272.241 93.5331 272.245 93.5315 272.249C89.1029 281.631 83.7536 291.947 81.7521 298.316C81.7368 298.385 81.7648 298.441 81.7993 298.024C81.6944 298.107 82.5858 294.886 78.176 292.963C74.8196 292.183 74.904 293.08 74.6264 293.028C74.4744 293.093 74.5418 293.055 74.6204 292.991C75.0523 292.669 75.814 292.003 76.5175 291.34C77.9672 289.976 79.3947 288.506 80.7824 287.053C83.5801 284.118 86.1713 281.267 88.7257 278.466C91.4801 275.444 94.0924 272.566 96.6916 269.746C105.69 259.984 113.811 251.573 134.703 230.512ZM99.5825 144.011C104.858 141.482 109.086 139.318 112.232 137.644C109.541 138.995 106.842 140.35 104.158 141.702C102.633 142.47 101.106 143.24 99.5825 144.011ZM81.0475 285.419C81.447 284.551 81.8512 283.682 82.2544 282.818C81.0896 285.138 79.8929 287.543 78.7607 289.941C78.0536 291.444 77.3919 292.885 76.7802 294.406C76.4733 295.176 76.1809 295.952 75.9744 296.732C75.7067 297.347 75.8074 299.201 76.9396 298.608C74.742 299.038 76.1741 296.316 76.4281 295.392C76.8925 294.148 77.3622 293.093 77.9064 291.899C78.9239 289.682 80.0224 287.467 81.0475 285.419ZM137.742 233.953C126.127 245.652 117.863 254.8 110.392 263.056C108.258 265.415 106.135 267.755 104.091 269.988C103.219 270.937 102.355 271.887 101.512 272.82C106.789 267.572 111.675 262.707 115.645 258.753C127.525 246.921 134.369 240.272 140.385 234.43C142.125 232.741 143.8 231.115 145.503 229.454C146.842 228.012 148.239 226.512 149.651 225.008C151.634 222.897 153.783 220.623 155.832 218.468C157.887 216.305 159.989 214.107 162.056 211.958C164.128 209.804 166.209 207.654 168.279 205.524C170.209 203.537 172.151 201.548 174.046 199.608C174.154 199.497 174.262 199.387 174.369 199.277C176.338 197.261 178.276 195.279 180.06 193.438C181.845 191.594 183.341 190.03 184.64 188.628C186.278 186.863 187.94 185.081 189.589 183.324C191.275 181.53 192.882 179.827 194.572 178.053C196.208 176.332 197.913 174.556 199.539 172.872C200.088 172.305 200.664 171.711 201.18 171.179C201.416 170.937 201.687 170.659 201.932 170.407C198.56 173.684 195.081 177.107 191.517 180.622C186.358 185.71 180.832 191.139 174.739 197.141C164.362 207.36 152.353 219.234 137.742 233.953ZM194.78 210.791C195.64 208.964 196.906 206.261 198.551 202.814C198.95 201.979 199.344 201.154 199.788 200.233C199.777 200.254 199.766 200.276 199.756 200.297C198.629 202.49 197.581 204.559 196.484 206.757C194.517 210.703 192.638 214.547 190.756 218.451C188.867 222.37 187.008 226.284 185.163 230.213C183.315 234.149 181.48 238.107 179.677 242.035C177.856 246.004 176.078 249.918 174.298 253.885C173.734 255.141 173.163 256.419 172.601 257.681C173.914 254.883 175.276 251.963 176.717 248.883C177.866 246.428 179.07 243.862 180.342 241.171C180.829 240.143 181.425 238.896 182.119 237.448C184.879 231.696 189.192 222.686 194.78 210.791ZM159.02 289.574C158.634 290.486 158.239 291.415 157.847 292.336C156.746 294.919 155.667 297.437 154.612 299.919C153.88 301.64 153.145 303.379 152.455 305.053C152.153 305.786 151.875 306.468 151.593 307.178C151.144 308.309 150.63 309.63 150.422 310.408C153.137 302.984 157.144 294.548 160.736 286.318C160.785 286.207 160.837 286.09 160.884 285.984C160.239 287.227 159.623 288.412 159.02 289.574Z" fill="#3B82F6"/>
<path d="M112.538 138.082C120.225 134.086 129.613 128.88 137.299 125.077C137.406 125.024 137.514 124.971 137.622 124.917C140.763 123.364 143.982 121.806 147.872 119.933C148.363 119.697 148.877 119.45 149.395 119.2C154.002 116.991 159.695 114.226 167.363 110.623C170.547 109.139 173.848 107.576 176.435 106.577C176.742 106.461 177.014 106.368 177.207 106.311C177.306 106.282 177.381 106.263 177.453 106.247C177.375 106.223 178.543 106.168 176.405 106.357C175.565 106.527 171.829 105.572 170.539 103.011C169.432 100.918 169.705 100.059 169.664 99.6444C169.708 98.7563 169.771 98.7684 169.773 98.7024C169.786 98.646 169.695 98.9226 169.595 99.1708C169.158 100.279 168.471 101.757 167.844 103.079C165.234 108.536 162.608 113.686 160.342 118.215C155.799 127.256 152.507 133.899 150.93 137.096C144.663 149.782 137.685 163.197 128.144 181.483C127.27 183.158 126.375 184.869 125.458 186.626C124.714 188.052 123.911 189.134 123.663 189.044C123.415 188.956 123.816 187.73 124.56 186.304C125.459 184.583 126.332 182.91 127.187 181.272C127.19 181.264 127.194 181.257 127.198 181.249C136.8 162.848 143.625 149.727 149.749 137.333C151.348 134.092 154.723 127.286 159.378 118.025C161.703 113.38 164.394 108.11 167.053 102.54C167.69 101.196 168.4 99.6504 168.771 98.6815C168.854 98.4879 168.915 98.1815 168.807 98.7111C169.012 99.2189 167.532 98.6409 169.862 103.72C171.698 106.854 175.773 107.453 176.623 107.297C177.817 107.215 177.884 107.103 177.861 107.122C177.483 107.203 177.181 107.302 176.499 107.566C173.812 108.636 170.454 110.227 167.191 111.754C159.447 115.404 153.701 118.194 149.064 120.421C148.552 120.667 148.065 120.901 147.581 121.134C147.57 121.14 147.558 121.145 147.547 121.151C143.624 123.041 140.553 124.527 137.545 126.015C137.481 126.047 137.418 126.079 137.354 126.111C129.583 129.956 120.375 135.074 112.927 138.945C111.49 139.691 110.259 140.094 110.151 139.856C110.045 139.617 111.104 138.827 112.538 138.082ZM173.715 242.096C170.565 249.871 165.955 260.025 161.809 268.954C157.634 277.937 153.754 286.053 151.904 289.856C150.093 293.583 148.202 297.744 146.041 302.84C145.551 304.006 145.037 305.239 144.533 306.559C144.316 307.137 144.11 307.676 143.888 308.426C143.797 308.884 143.58 308.9 143.604 310.535C144.148 314.189 147.084 314.185 147.74 314.252C150.908 314.095 151.518 313.288 152.879 312.72C155.32 311.493 157.538 310.154 159.911 308.754C169.473 302.646 174.183 296.165 179.164 291.246C183.91 286.255 187.738 282.078 190.844 278.671C192.121 277.271 193.349 275.915 194.437 274.713C194.438 274.711 194.44 274.709 194.442 274.707C198.671 270.03 201.759 266.592 204.773 263.414C210.058 257.845 214.345 253.32 219.642 247.89C226.926 240.429 236.758 229.266 242.912 221.814C243.248 221.407 243.592 220.989 243.942 220.566C248.414 215.149 253.893 208.502 262.254 198.622C269.194 190.418 275.348 183.359 280.813 177.124C282.379 175.337 283.875 173.634 285.31 171.997C288.933 167.864 292.164 164.168 295.17 160.634C313.776 138.754 324.542 126.125 331.388 118.3C336.677 112.243 339.703 108.952 341.896 106.567C342.555 105.851 343.134 105.223 343.685 104.61C348.523 99.2382 352.852 94.1408 357.987 88.0143C359.134 86.6448 360.304 85.2453 361.552 83.7499C365.684 78.7965 368.62 75.0013 370.904 71.9634C371.892 70.648 372.757 69.4756 373.57 68.3698C373.585 68.3494 373.6 68.3289 373.615 68.3085C373.728 68.1546 373.841 68.0023 373.952 67.8511C374.036 67.737 374.118 67.6226 374.202 67.5088C374.232 67.4619 374.26 67.4207 374.281 67.3896C374.297 67.3651 374.31 67.346 374.318 67.3338C374.32 67.3313 374.321 67.3289 374.323 67.3264C374.472 67.1039 374.607 66.9179 374.634 66.8797C374.682 66.8131 374.726 66.7547 374.748 66.7248C374.864 66.5676 375.02 66.3616 375.124 66.2255C375.39 65.8755 375.854 65.2686 376.565 64.3388C377.175 63.5244 377.751 62.7373 378.478 61.7409C378.524 61.6783 378.569 61.6157 378.615 61.5531C379.322 60.5839 380.137 59.4646 381.183 58.0402C382.131 56.7501 383.16 55.703 383.5 55.6845C383.835 55.6714 383.342 56.708 382.4 57.9929C381.421 59.3279 380.646 60.3937 379.944 61.3565C379.9 61.4178 379.855 61.4791 379.811 61.5405C379.077 62.5474 378.369 63.5153 377.612 64.5252C377.357 64.8652 377.093 65.2156 376.844 65.5432C376.403 66.1338 375.891 66.8298 375.304 67.6304C375.185 67.7923 375.062 67.9591 374.936 68.1303C374.132 69.2255 373.171 70.5313 372.103 71.9541C369.572 75.325 366.303 79.5464 361.805 84.9336C360.606 86.3705 359.487 87.7074 358.353 89.0605C353.189 95.2187 348.565 100.661 343.398 106.392C342.696 107.169 342.012 107.913 341.275 108.714C339.069 111.112 336.516 113.879 331.619 119.483C325.088 126.944 314.572 139.275 296.07 161.036C292.914 164.747 289.468 168.689 285.781 172.893C284.375 174.497 282.933 176.141 281.462 177.819C276.081 183.959 270.119 190.797 263.42 198.717C255.25 208.375 249.905 214.859 245.464 220.243C245.31 220.429 245.156 220.616 245.003 220.802C244.812 221.033 244.623 221.262 244.436 221.489C237.881 229.429 227.416 241.326 219.386 249.545C214.309 254.747 210.191 259.093 204.936 264.629C202.334 267.368 199.67 270.337 195.533 274.913C194.389 276.177 193.083 277.618 191.687 279.151C188.506 282.639 184.634 286.865 179.808 291.941C174.731 296.933 170.033 303.541 160.076 309.758C157.773 311.113 155.623 312.408 153.185 313.624C151.782 314.181 151.338 315.036 147.643 315.194C146.856 315.12 143.297 315.007 142.661 310.615C142.63 308.65 142.878 308.692 142.972 308.187C143.207 307.392 143.416 306.844 143.634 306.263C144.158 304.887 144.692 303.609 145.21 302.378C147.388 297.244 149.501 292.574 151.587 288.292C153.309 284.757 157.063 276.914 161.129 268.167C165.222 259.354 169.474 249.963 172.243 243.121C172.531 242.411 172.822 241.694 173.112 240.978C175.614 234.811 178.187 228.527 180.06 223.375C183.895 211.659 190.71 195.797 198.978 179.802C201.04 175.819 203.223 171.791 205.471 167.862C206.592 165.899 207.75 163.935 208.834 162.086C209.361 161.186 209.978 160.124 210.203 159.672C210.24 159.633 210.273 159.373 210.039 160.24C209.985 160.541 209.866 160.725 209.887 161.891C209.945 162.498 209.867 162.981 210.559 164.495C211.164 165.89 213.027 167.427 214.273 167.788C219.893 168.808 218.501 167.494 219.115 167.565C219.911 167.117 219.253 167.482 219.005 167.701C213.237 172.532 207.006 178.747 201.855 183.731C201.587 183.993 201.315 184.258 201.039 184.528C176.987 208.125 159.806 225.56 153.918 231.474C153.644 231.75 153.394 232.002 153.17 232.228C152.969 232.43 152.789 232.613 152.629 232.774C150.232 235.189 148.134 237.347 145.937 239.608C145.817 239.731 145.697 239.855 145.577 239.978C143.254 242.369 140.812 244.877 137.9 247.804C127.062 258.694 118.257 267.614 110.627 275.339C109.227 276.756 107.864 278.134 106.502 279.512C106.498 279.516 106.494 279.52 106.49 279.524C100.592 285.48 95.457 290.712 90.3083 295.717C87.9275 298.01 85.8199 300.063 83.3096 302.111C82.6033 302.672 81.9893 303.167 80.914 303.817C80.2909 304.157 79.741 304.597 77.9633 305.003C77.0034 305.15 74.8932 305.657 72.1762 303.72C69.5897 301.584 69.5759 299.756 69.3949 298.715C69.4842 293.079 70.325 293.741 70.7804 292.053C72.7785 287.214 74.4927 283.953 76.0189 280.83C76.952 278.948 77.8529 277.152 78.6752 275.518C80.4864 271.922 82.0465 268.852 83.6831 265.685C86.7722 259.71 89.5992 254.161 92.3646 248.736C92.6173 248.241 92.8577 247.77 93.1028 247.29C96.1179 241.377 99.0821 235.577 102.296 229.432C103.038 228.012 103.849 226.922 104.096 227.013C104.342 227.105 103.933 228.344 103.191 229.763C100.07 235.729 97.173 241.396 94.1613 247.302C93.9145 247.786 93.6701 248.266 93.4229 248.751C90.6493 254.191 87.7843 259.812 84.635 265.903C83.069 268.934 81.5798 271.863 79.8057 275.381C78.9913 276.999 78.0668 278.838 77.065 280.854C75.5232 283.999 73.7882 287.317 71.7776 292.112C71.3029 293.494 70.6903 293.961 70.3022 297.52C70.295 297.969 70.2246 298.901 70.7287 300.262C70.9463 301.622 74.1442 304.276 75.7591 304.167C79.4235 304.233 79.2574 303.482 80.0191 303.237C81.2999 302.521 81.8048 302.083 82.509 301.54C85.0869 299.463 87.1583 297.434 89.5671 295.118C94.6246 290.206 99.7262 285.01 105.606 279.073C106.98 277.683 108.342 276.305 109.772 274.856C117.411 267.124 126.272 258.147 137.166 247.2C139.919 244.434 142.232 242.058 144.547 239.676C144.677 239.543 144.807 239.409 144.936 239.276C147.114 237.036 149.329 234.756 151.86 232.206C152.199 231.865 152.631 231.43 153.15 230.906C159.049 224.982 176.295 207.479 200.443 183.788C200.519 183.715 200.594 183.641 200.669 183.569C204.697 179.632 208.334 176.104 211.557 173.045C213.2 171.486 214.722 170.059 216.159 168.765C216.86 168.135 217.568 167.513 218.18 167.013C218.451 166.789 218.792 166.532 218.863 166.488C218.824 166.48 219.154 166.449 217.979 166.87C217.566 166.952 217.333 167.226 215.598 167.027C214.036 167.054 211.195 164.351 211.116 162.928C210.697 160.602 211.121 160.625 211.131 160.305C210.83 160.788 208.218 165.373 206.968 167.61C205.527 170.193 204.286 172.524 203.178 174.694C199.682 181.559 197.163 186.682 195.078 190.908C194.684 191.709 194.313 192.467 193.956 193.198C192.423 196.334 191.233 198.816 190.101 201.319C186.69 208.882 184.452 214.454 181.984 221.218C179.886 226.969 177.051 233.884 174.587 239.949C174.583 239.958 174.58 239.967 174.576 239.976C174.283 240.695 173.995 241.404 173.715 242.096ZM394.58 39.1901C395.549 37.8988 396.492 36.99 396.692 37.1571C396.893 37.3249 396.273 38.5087 395.304 39.8004C393.006 42.8642 390.692 45.9292 388.365 48.9924C387.389 50.2762 386.441 51.1709 386.241 51.0037C386.044 50.8314 386.669 49.6622 387.645 48.377C389.971 45.3166 392.284 42.2515 394.58 39.1901ZM180.772 237.943C180.17 239.39 179.373 240.742 178.993 240.96C178.614 241.176 178.793 240.179 179.394 238.731C179.713 237.965 180.23 236.708 180.931 235.011C183.457 228.917 188.28 217.149 194.831 202.453C198.113 195.119 201.843 187.055 206.079 178.699C208.2 174.515 210.478 170.257 212.857 166.001C213.448 164.936 214.053 163.862 214.609 162.809C214.864 162.328 215.193 161.632 215.215 161.481C215.218 161.493 215.176 161.508 215.216 161.808C215.128 162.117 216.177 162.998 216.485 162.851C216.961 162.8 216.762 162.787 216.714 162.839C216.575 162.921 216.341 163.088 216.116 163.264C214.338 164.689 212.518 166.466 210.736 168.171C208.325 170.497 206.206 172.607 204.164 174.647C195.483 183.347 189.007 190.763 172.389 207.385C154.947 224.844 137.478 242.313 119.989 259.739C111.236 268.458 102.527 277.13 93.7106 285.84C89.2612 290.175 85.0841 294.552 80.0379 298.65C79.3796 299.139 78.7734 299.668 77.6235 300.152C77.2675 300.268 76.966 300.462 76.0701 300.353C75.2009 300.337 74.1669 298.961 74.1871 298.501C74.0131 297.332 74.2171 297.035 74.3089 296.536C74.7827 294.739 75.4593 293.308 76.0828 291.903C77.3906 289.032 78.7847 286.285 80.208 283.498C103.067 239.757 126.23 196.182 148.589 152.226C155.04 139.533 161.554 126.863 167.855 114.195C169.432 111.01 170.988 107.854 172.467 104.642C173.181 103.074 173.966 101.364 174.374 100.027C174.42 99.8713 174.448 99.7216 174.445 99.7314C174.476 99.4864 174.159 101.071 175.989 101.558C177.48 101.538 175.865 101.681 175.753 101.786C175.046 102.015 174.261 102.342 173.469 102.687C167.14 105.525 160.778 108.84 154.435 112.059C133.31 122.86 94.426 142.595 85.6177 147.642C84.2299 148.423 83.0057 148.885 82.8891 148.65C82.7735 148.416 83.8068 147.577 85.2007 146.792C93.9925 141.757 132.723 122.1 153.786 111.328C160.116 108.113 166.45 104.818 172.836 101.931C173.633 101.581 174.432 101.241 175.208 100.971C175.589 100.838 175.991 100.721 176.346 100.639C176.672 100.741 175.268 100.272 175.394 99.875C175.38 99.69 175.386 99.9137 175.344 100.056C174.965 101.473 174.16 103.192 173.451 104.768C171.988 107.958 170.425 111.135 168.853 114.313C162.547 127.003 156.062 139.615 149.618 152.294C127.236 196.297 104.262 240.135 81.6281 284.055C80.2147 286.86 78.8458 289.595 77.5683 292.432C76.968 293.79 76.3024 295.27 75.8922 296.794C75.6372 297.336 75.761 299.264 76.9176 298.694C77.7211 298.398 78.3697 297.874 78.9559 297.432C83.7985 293.481 88.0324 289.008 92.4449 284.66C101.232 275.885 109.91 267.156 118.642 258.382C136.088 240.847 153.536 223.298 170.999 205.818C187.461 189.352 194.473 183.024 203.13 174.339C205.165 172.304 207.284 170.19 209.739 167.816C220.666 156.327 210.664 171.161 207.326 178.355C203.133 186.582 199.451 194.513 196.2 201.752C189.729 216.22 184.933 227.906 182.371 234.075C181.651 235.818 181.107 237.136 180.772 237.943ZM150.155 306.024C149.743 307.052 149.313 308.133 148.955 309.173C148.9 310.837 147.172 308.911 148.524 309.058C150.468 308.401 152.749 307.003 154.972 305.692C159.667 303.124 163.429 299.677 167.5 295.593C175.501 287.548 183.573 278.761 191.119 270.585C198.486 262.579 205.287 255.099 210.697 249.095C219.053 239.816 224.473 234.052 229.843 228.336C229.9 228.275 229.957 228.215 230.014 228.154C235.357 222.463 240.709 216.747 249.137 207.209C257.64 197.585 269.204 184.121 280.797 170.468C280.806 170.458 280.816 170.447 280.825 170.437C292.363 156.856 303.603 142.719 312.061 132.761C341.545 98.0999 359.303 76.4414 368.422 65.5393C384.371 46.5004 400.217 23.1923 415.972 3.31162C417.814 1.19265 415.631 5.43512 412.439 9.48729C412.325 9.63453 412.211 9.78177 412.097 9.92901C411.013 11.3324 410.066 12.562 408.753 14.3091C406.869 16.8542 405.482 18.7559 404.213 20.4936C400.939 25.0877 377.443 56.4336 368.442 67.0202C359.781 77.3534 343.268 99.3009 313.574 134.21C305.266 143.99 293.387 157.112 281.787 170.769C281.755 170.806 281.723 170.843 281.691 170.881C270.181 184.436 258.506 198.034 249.859 207.821C241.127 217.704 235.522 223.686 230.109 229.449C230.056 229.506 230.003 229.562 229.95 229.619C224.652 235.255 219.458 240.778 211.412 249.712C205.876 255.858 199.013 263.406 191.582 271.478C184.062 279.626 176.06 288.332 168.124 296.305C164.113 300.335 160.167 303.933 155.551 306.447C153.323 307.76 151.137 309.12 148.97 309.907C145.96 311.081 148.712 307.783 149.181 305.912C149.778 304.421 150.496 303.257 150.766 303.286C151.034 303.323 150.747 304.554 150.155 306.024ZM155.475 308.575C155.216 309.262 154.955 309.967 154.743 310.585C154.643 310.879 154.543 311.189 154.493 311.372C154.403 311.244 154.625 312.935 154.573 309.377C154.474 308.701 154.361 307.814 153.518 306.436C152.55 304.89 151.279 304.212 151.253 304.186C150.947 303.969 150.216 303.583 149.446 303.401C147.872 303.058 147.692 303.221 147.306 303.231C146.686 303.31 146.723 303.343 146.785 303.304C146.96 303.229 147.501 302.97 148.038 302.675C150.192 301.493 153.404 299.48 155.318 298.2C158.821 295.637 163.506 290.563 167.681 286.159C176.164 277.106 184.609 267.761 193.097 258.457C209.984 239.907 226.914 221.349 243.705 203.084C252.29 193.369 264.243 179.805 276.105 166.191C276.24 166.038 276.374 165.884 276.508 165.73C288.248 152.26 299.829 138.807 308.101 129.067C337.539 94.4553 354.912 72.5016 363.997 61.6378C372.431 51.5199 374.629 48.5705 377.907 44.2455C377.996 44.1278 378.085 44.01 378.174 43.8924C378.18 43.8842 378.185 43.8759 378.19 43.8677C378.292 43.7121 378.38 43.5836 378.426 43.5177C378.52 43.3836 378.598 43.2761 378.627 43.2358C378.695 43.1427 378.752 43.0656 378.773 43.0382C378.857 42.9258 378.953 42.798 379.016 42.7159C379.606 41.9403 381.44 39.5466 382.911 37.6417C384.408 35.705 385.504 34.3177 386.645 32.8759C386.762 32.7285 386.878 32.5811 386.995 32.4338C388.031 31.1224 389.152 29.7024 390.751 27.6372C391.72 26.3853 392.588 25.6076 392.679 25.92C392.771 26.2316 392.056 27.5063 391.084 28.7615C389.397 30.9402 388.206 32.4473 387.163 33.7655C387.048 33.9104 386.933 34.0553 386.818 34.2004C385.723 35.5834 384.757 36.8066 383.426 38.5279C381.504 41.05 380.096 42.9178 378.809 44.6222C375.41 49.1068 372.884 52.4926 364.022 63.1101C355.383 73.4197 338.468 94.8149 308.833 129.664C300.543 139.425 288.947 152.896 277.215 166.358C277.077 166.516 276.939 166.674 276.802 166.832C264.931 180.455 252.992 194.001 244.425 203.695C227.752 222.561 211.229 241.309 194.529 259.794C186.134 269.067 177.736 278.306 169.152 287.245C164.897 291.615 160.281 296.508 156.329 299.305C154.422 300.532 151.146 302.47 148.828 303.664C148.239 303.964 147.654 304.235 147.295 304.365C147.255 304.792 145.486 303.154 150.709 305.15C150.806 305.187 152.089 306.04 152.775 307.342C153.335 308.369 153.445 309.157 153.499 309.644C153.574 310.552 153.49 310.782 153.474 310.959C153.423 311.277 153.425 311.217 153.444 311.17C153.486 311.04 153.589 310.748 153.706 310.44C153.939 309.824 154.214 309.151 154.509 308.447C157.896 300.078 161.431 292.177 164.578 284.982C173.931 263.738 181.234 247.491 187.796 231.824C189.242 228.395 193.189 219.464 199.134 206.727C200.886 202.986 202.815 198.924 204.955 194.545C207.577 189.182 210.498 183.359 213.797 177.226C215.454 174.138 217.197 171.045 219.088 167.694C219.561 166.843 220.019 166.056 220.579 164.926C220.728 164.617 220.873 164.318 221.061 163.822C221.163 163.534 221.273 163.286 221.403 162.602C221.445 162.307 221.582 161.746 221.407 160.697C221.55 159.847 219.147 156.685 217.488 156.666C212.409 156.595 214.001 157.46 213.232 157.594C212.804 157.871 212.568 158.053 212.301 158.257C210.367 159.784 209.035 161.093 207.513 162.524C205.021 164.898 202.871 167.034 200.831 169.063C192.106 177.783 185.315 184.722 168.697 201.339C148.243 221.797 113.988 256.019 95.5568 274.224C86.3281 283.334 81.0725 288.479 77.4037 291.643C76.4457 292.468 75.4685 293.241 74.9621 293.547C74.8593 293.623 74.6083 293.682 75.1967 293.46C75.4617 293.413 76.1364 292.977 77.9503 293.499C80.1272 294.125 81.1826 296.617 81.1902 297.159C81.3392 299.361 81.209 297.98 81.3998 297.751C81.7168 296.854 82.2342 295.672 82.8541 294.337C92.4536 274.934 100.134 260.858 111.678 238.139C112.413 236.704 113.234 235.566 113.521 235.58C113.806 235.596 113.455 236.749 112.718 238.189C101.168 260.924 93.33 275.281 83.6563 294.855C83.0337 296.197 82.486 297.472 82.2338 298.237C82.1816 298.384 82.1481 298.552 82.1748 298.369C82.1851 298.232 82.2324 298.131 82.186 297.464C82.074 296.845 82.113 294.891 79.3858 293.116C74.1185 291.093 74.6685 293.03 74.4118 292.766C74.3043 292.831 74.4592 292.753 74.646 292.624C75.2012 292.25 76.0859 291.535 77.0369 290.708C80.6061 287.603 85.8027 282.526 94.9838 273.461C113.376 255.294 147.585 221.118 167.976 200.722C184.428 184.271 191.102 177.454 199.785 168.768C201.813 166.746 203.978 164.592 206.506 162.175C207.998 160.758 209.439 159.37 211.239 157.888C211.775 157.47 212.091 157.146 213.276 156.465C213.676 156.273 213.92 156.022 215.33 155.717C215.737 155.669 217.982 155.1 220.35 157.047C222.747 159.332 222.371 161.026 222.437 161.77C222.211 164.301 221.903 164.118 221.746 164.658C221.065 166.175 220.616 166.882 220.143 167.751C218.233 171.147 216.495 174.212 214.838 177.294C211.521 183.443 208.61 189.238 205.982 194.603C203.854 198.953 201.919 203.02 200.177 206.738C194.114 219.717 190.418 228.105 189.175 231.042C182.379 247.247 174.76 264.2 165.324 285.639C162.206 292.764 158.763 300.476 155.475 308.575ZM154.536 156.545C153.797 157.995 152.99 159.111 152.704 159.095C152.425 159.068 152.764 157.935 153.506 156.477C157.356 148.915 160.079 143.526 162.243 139.234C166.178 131.418 168.126 127.522 171.004 121.856C172.868 118.177 174.709 114.516 176.483 110.855C177.374 109.01 178.245 107.186 179.082 105.278C179.508 104.293 179.902 103.407 180.322 102.126C180.428 101.788 180.527 101.48 180.637 100.918C180.368 100.358 182.456 99.8812 178.836 96.0629C174.452 94.1851 175.155 95.7267 174.738 95.5154C174.435 95.5936 174.092 95.6934 173.792 95.7909C165.438 99.0317 159.43 102.501 152.901 105.742C131.7 116.575 114.563 125.581 105.455 130.314C104.044 131.049 102.787 131.466 102.678 131.228C102.575 130.988 103.653 130.187 105.067 129.451C114.115 124.749 131.119 115.814 152.251 105.013C158.791 101.759 164.792 98.322 173.25 94.9746C173.565 94.8679 173.881 94.7689 174.243 94.6692C174.795 94.5771 173.977 94.4954 176.38 94.3368C177.426 93.9737 181.323 96.4115 181.431 98.086C181.854 99.615 181.673 100.055 181.647 100.556C181.548 101.354 181.41 101.782 181.305 102.147C180.861 103.579 180.456 104.472 180.019 105.495C179.174 107.431 178.296 109.274 177.396 111.139C175.617 114.815 173.757 118.515 171.881 122.217C169.085 127.723 167.274 131.348 163.396 139.052C161.255 143.301 158.485 148.786 154.536 156.545Z" fill="black"/>
<path d="M9.4982 344.949H27.7207L23.0067 351H2.21625V327.466H9.4982V344.949ZM66.3024 351H38.9335L43.3309 344.949H49.2408C50.648 344.949 52.3014 344.949 53.4271 345.02C52.7939 344.175 51.8089 342.733 51.035 341.607L46.8135 335.381L35.7675 351H27.1487L42.2403 329.717C43.2253 328.345 44.6676 327.079 46.9542 327.079C49.1353 327.079 50.5776 328.24 51.5978 329.717L66.3024 351ZM92.7484 351.387C91.8338 351.387 90.9543 351.176 89.8286 350.121L75.4054 337.175V351H68.7919V331.476C68.7919 328.345 70.6915 327.079 72.767 327.079C73.6465 327.079 74.526 327.29 75.6868 328.345L90.11 341.291V327.466H96.7588V346.954C96.7588 350.085 94.8591 351.387 92.7484 351.387ZM114.491 344.949H130.99L126.311 351H114.491C106.33 351 100.314 345.829 100.314 339.004C100.314 332.109 106.33 327.466 114.491 327.466H130.99L126.311 333.587H114.491C110.551 333.587 107.596 335.944 107.596 339.321C107.596 342.663 110.516 344.949 114.491 344.949ZM140.834 344.949H160.851L156.172 351H133.517V327.466H160.781L156.067 333.587H140.834V336.401H159.479L155.293 341.748H140.834V344.949ZM192.394 346.427L196.721 351H186.977L181.735 344.773H170.548V351H163.266V338.969H183.74C185.992 338.969 187.75 337.949 187.75 336.331C187.75 334.501 186.238 333.587 183.74 333.587H163.266L168.015 327.466H183.142C188.489 327.466 195.243 329.154 195.243 335.873C195.243 339.532 192.957 342.557 189.087 343.331C189.896 343.929 190.776 344.773 192.394 346.427ZM208.345 336.858H221.15C226.884 336.858 229.98 339.004 229.98 343.296C229.98 348.115 227.06 351 219.884 351H197.968L202.646 344.949H220.447C222.17 344.949 222.944 344.457 222.944 343.226C222.944 342.029 222.17 341.537 220.447 341.537H207.642C201.591 341.537 198.812 338.828 198.812 334.783C198.812 330.35 201.767 327.466 208.908 327.466H229.347L224.668 333.587H208.345C206.657 333.587 205.848 334.009 205.848 335.205C205.848 336.401 206.657 336.858 208.345 336.858Z" fill="black"/>
<path d="M240.498 344.949H258.721L254.007 351H233.216V327.466H240.498V344.949ZM276.682 327.079C288.115 327.079 293.884 330.808 293.884 339.215C293.884 347.623 288.115 351.387 276.682 351.387C265.214 351.387 259.48 347.623 259.48 339.215C259.48 330.808 265.214 327.079 276.682 327.079ZM276.682 345.266C283.999 345.266 286.638 344.281 286.638 339.215C286.638 334.149 283.999 333.2 276.682 333.2C269.365 333.2 266.727 334.149 266.727 339.215C266.727 344.281 269.365 345.266 276.682 345.266ZM314.025 327.079C325.458 327.079 331.227 330.808 331.227 339.215C331.227 347.623 325.458 351.387 314.025 351.387C302.557 351.387 296.823 347.623 296.823 339.215C296.823 330.808 302.557 327.079 314.025 327.079ZM314.025 345.266C321.342 345.266 323.98 344.281 323.98 339.215C323.98 334.149 321.342 333.2 314.025 333.2C306.708 333.2 304.069 334.149 304.069 339.215C304.069 344.281 306.708 345.266 314.025 345.266ZM346.362 329.576L350.126 336.225C352.202 339.848 353.116 341.607 353.925 343.261C354.699 341.607 355.614 339.884 357.689 336.26L361.453 329.576C362.298 328.064 363.564 327.079 365.464 327.079C367.293 327.079 368.911 328.134 369.545 330.315L375.49 351H368.243L366.027 342.803C365.288 340.13 364.795 338.23 364.408 336.331C363.635 337.984 362.755 339.778 361.137 342.839L357.971 348.749C356.74 351.07 355.543 351.387 353.785 351.387C352.026 351.387 350.83 351.07 349.598 348.749L346.432 342.803C344.708 339.567 343.864 337.914 343.125 336.331C342.774 338.195 342.246 340.165 341.542 342.803L339.326 351H332.185L338.271 330.315C338.904 328.134 340.557 327.079 342.387 327.079C344.251 327.079 345.518 328.028 346.362 329.576Z" fill="#3B82F6"/>
</svg>
